{"title":"Toy Story 3 TS XViD - IMAGiNE","uid":5642622,"size":1526250593,"categoryP":"video","categoryS":"movies","magnet":"?xt=urn:btih:a4896fbac82989f41761c276ef8e750c99182e57&amp;dn=Toy+Story+3+TS+XViD+-+IMAGiNE&amp;tr=udp%3A%2F%2Ftracker.openbittorrent.com%3A80&amp;tr=udp%3A%2F%2Fopen.demonii.com%3A1337&amp;tr=udp%3A%2F%2Ftracker.coppersurfer.tk%3A6969&amp;tr=udp%3A%2F%2Fexodus.desync.com%3A6969","seeders":0,"leechers":0,"uploader":"DibyaTPB","files":103,"time":1277168267,"description":"*********** ****    ****      ***      ******** *********** ****    *** **********\n          *+*     +*+*+* *+*+*+   *+* *+*   *+*    *+*    *+*     *+*+*   *+* *+*        \n          +*+     +*+ +*+*+ +*+  +*+   +*+  +*+           +*+     *+*+*+  +*+ +*+        \n          +$+     +$+  +*+  +$+ +$++*++$++* *$*           +$+     +$+ +*+ +$+ +$++*++$  \n          +$+     +$+       +$+ +$+     +$+ +$+   +$+$    +$+     +$+  +$+$+$ +$+        \n          $+$     $+$       $+$ $+$     $+$ $+$    $+$    $+$     $+$   $+$+$ $+$        \n      $$$$$$$$$$$ $$$       $$$ $$$     $$$  $$$$$$$$ $$$$$$$$$$$ $$$    $$$$ $$$$$$$$$$    \n                                               \n\n\n\n                          Another Fine Release Brought to you from - IMAGiNE                  \n                                               \n\n********************************************************************************************************************                                \n                                      Toy Story 3 TS XViD - IMAGiNE\n********************************************************************************************************************\n\nRipper ...........: IMAGiNE                                        IMDB Rating.......:9.5/10                            \nVideo Codec.......: XVID                                        Release Date......:21/06/10\nAudio Codec.......:AC3                                           Theatre Date......:18/06/10\nAudio Bitrate.....:128                                              Runtime.......:1h 34mn\nSubtitles.........:NIL                                                 Language..........:ENGLISH\nResolution...... 704 x 384                                     IMDb URL..........:http://www.imdb.com/title/tt0435761/\n\n\nDETAILS:\n\nVideo\nFormat                           : MPEG-4 Visual\nFormat profile                   : Streaming Video@L1\nFormat settings, BVOP            : Yes\nFormat settings, QPel            : No\nFormat settings, GMC             : No warppoints\nFormat settings, Matrix          : Default\nMuxing mode                      : Packed bitstream\nCodec ID                         : XVID\nCodec ID/Hint                    : XviD\nDuration                         : 1h 34mn\nBit rate                         : 1 960 Kbps\nWidth                            : 704 pixels\nHeight                           : 384 pixels\nDisplay aspect ratio             : 16/9\nFrame rate                       : 25.000 fps\nResolution                       : 24 bits\nColorimetry                      : 4:2:0\nScan type                        : Progressive\nBits/(Pixel*Frame)               : 0.290\nStream size                      : 1.29 GiB (93%)\nWriting library                  : XviD 50\n\nAudio\nFormat                           : AC-3\nFormat/Info                      : Audio Coding 3\nCodec ID                         : 2000\nDuration                         : 1h 34mn\nBit rate mode                    : Constant\nBit rate                         : 128 Kbps\nChannel(s)                       : 2 channels\nChannel positions                : L R\nSampling rate                    : 48.0 KHz\nStream size                      : 86.2 MiB (6%)\nAlignment                        : Aligned on interleaves\nInterleave, duration             : 40 ms (1.00 video frame)\nInterleave, preload duration     : 512 ms\n\n\n\nNOTES:\n\nIMAGiNE bringing you another release.....Toy story 3 TS\n\nWell first off thanks to prism for the audio and Relizlab for the video\nNow heres our xvid like promised......same filtering done as our dvdr,however we have added some more\ndeflicker on this,to try and get rid alot of the flicker.\nStill has a pulse,but looks much better in our opinion now (then our cam video).\nWe have added two samples of where we think is the worse part of the video for the flicker,so you can see how\nbad it gets ;-)\nAnyway heres release 99895 of toy story 3\n\nEnjoy\n","torrent":{"xt":"urn:btih:a4896fbac82989f41761c276ef8e750c99182e57","amp;dn":"Toy+Story+3+TS+XViD+-+IMAGiNE","amp;tr":["udp%3A%2F%2Ftracker.openbittorrent.com%3A80","udp%3A%2F%2Fopen.demonii.com%3A1337","udp%3A%2F%2Ftracker.coppersurfer.tk%3A6969","udp%3A%2F%2Fexodus.desync.com%3A6969"],"infoHash":"a4896fbac82989f41761c276ef8e750c99182e57","infoHashBuffer":{"type":"Buffer","data":[164,137,111,186,200,41,137,244,23,97,194,118,239,142,117,12,153,24,46,87]},"announce":[],"urlList":[]}}